HIERARCHY
ROOT hip
{
	OFFSET 0.000000 0.000000 0.000000 
	CHANNELS 6 Xposition Yposition Zposition Xrotation Zrotation Yrotation
	JOINT abdomen
	{
		OFFSET 0.000000 3.402643 0.000000 
		CHANNELS 3 Xrotation Zrotation Yrotation
		JOINT chest
		{
			OFFSET 0.000000 8.438565 -0.680529 
			CHANNELS 3 Xrotation Zrotation Yrotation
			JOINT neck
			{
				OFFSET 0.000000 10.207942 -0.272212 
				CHANNELS 3 Xrotation Zrotation Yrotation
				JOINT head
				{
					OFFSET 0.000000 3.130431 0.000000 
					CHANNELS 3 Xrotation Zrotation Yrotation
					End Site
					{
						OFFSET 0.000000 3.130435 0.000000 
					}
				}
			}
			JOINT lCollar
			{
				OFFSET 3.470700 6.669187 -0.816635 
				CHANNELS 3 Yrotation Zrotation Xrotation
				JOINT lShldr
				{
					OFFSET 3.198488 0.000000 0.000000 
					CHANNELS 3 Zrotation Yrotation Xrotation
					JOINT lForeArm
					{
						OFFSET 10.139888 0.000000 0.000000 
						CHANNELS 3 Yrotation Zrotation Xrotation
						JOINT lHand
						{
							OFFSET 8.370511 0.000000 0.000000 
							CHANNELS 3 Zrotation Yrotation Xrotation
							End Site
							{
								OFFSET 4.083176 0.000000 0.000000 
							}
						}
					}
				}
			}
			JOINT rCollar
			{
				OFFSET -3.470700 6.669187 -0.816635 
				CHANNELS 3 Yrotation Zrotation Xrotation
				JOINT rShldr
				{
					OFFSET -3.198488 0.000000 0.000000 
					CHANNELS 3 Zrotation Yrotation Xrotation
					JOINT rForeArm
					{
						OFFSET -10.139888 0.000000 0.000000 
						CHANNELS 3 Yrotation Zrotation Xrotation
						JOINT rHand
						{
							OFFSET -8.370511 0.000000 0.000000 
							CHANNELS 3 Zrotation Yrotation Xrotation
							End Site
							{
								OFFSET -4.083176 0.000000 0.000000 
							}
						}
					}
				}
			}
		}
	}
	JOINT lThigh
	{
		OFFSET 5.308129 -1.633274 1.361059 
		CHANNELS 3 Xrotation Zrotation Yrotation
		JOINT lShin
		{
			OFFSET -2.041588 -20.007561 0.000000 
			CHANNELS 3 Xrotation Zrotation Yrotation
			JOINT lFoot
			{
				OFFSET 0.000000 -19.190928 -1.224953 
				CHANNELS 3 Xrotation Yrotation Zrotation
				End Site
				{
					OFFSET 0.000000 -2.449906 4.627600 
				}
			}
		}
	}
	JOINT rThigh
	{
		OFFSET -5.308129 -1.633274 1.361059 
		CHANNELS 3 Xrotation Zrotation Yrotation
		JOINT rShin
		{
			OFFSET 2.041588 -20.007561 0.000000 
			CHANNELS 3 Xrotation Zrotation Yrotation
			JOINT rFoot
			{
				OFFSET 0.000000 -19.190928 -1.224953 
				CHANNELS 3 Xrotation Yrotation Zrotation
				End Site
				{
					OFFSET 0.000000 -2.449906 4.627600 
				}
			}
		}
	}
}
MOTION
Frames: 10
Frame Time: 0.011111
23.057940 51.052261 -0.604999 6.839967 -7.810839 89.806206 20.272392 -9.888347 -10.140224 -12.467007 3.839993 -1.125694 -9.579534 8.010870 -0.365914 29.757143 -4.166008 -0.364746 2.785591 -10.422155 1.651026 -65.649498 -61.124599 37.643257 -65.451157 9.449252 14.895154 8.524705 12.647240 -36.165421 2.149531 12.114442 0.054873 67.638718 23.630312 4.709941 38.162037 -4.070313 3.769086 -8.534408 -12.637552 26.156105 16.362274 -1.893938 -2.238719 15.533867 -5.920158 -2.896194 -15.459063 -17.621517 -8.679402 -30.071100 -11.326497 6.143237 17.145639 5.848670 3.091332 -17.099566 -2.235244 2.234041 
23.604818 50.944859 -0.596502 6.933114 -7.670617 89.751236 19.618296 -9.258796 -11.872809 -13.413656 5.051379 -1.663104 -6.362254 6.586115 0.793643 28.302551 -4.829380 1.097094 2.785591 -10.422155 1.651026 -66.434479 -58.615879 34.847153 -65.440529 9.449822 14.894163 8.524705 12.647240 -36.761120 2.149531 12.114442 0.054873 65.795517 21.676144 7.619534 38.051495 -4.025530 3.725985 -8.534408 -12.637552 26.722513 17.038155 -1.972642 -2.456131 15.549184 -5.906147 -2.906079 -14.258246 -17.763699 -8.401668 -30.247297 -11.277550 5.095263 18.883259 5.796185 3.357492 -15.347612 -1.656537 2.526084 
24.164612 50.919029 -0.584606 6.855193 -7.549056 89.839340 20.215475 -9.334274 -10.906666 -13.050193 4.257493 -1.390310 -8.291915 7.858616 0.156740 29.133707 -4.877118 0.273241 2.785591 -10.422155 1.651026 -66.341125 -59.497471 36.563644 -64.875824 9.454457 14.622331 8.524705 12.647240 -36.741585 2.149531 12.114442 0.054873 66.786331 22.959896 4.406010 37.519573 -3.821913 3.551774 -8.534408 -12.637552 24.925642 17.649509 -1.835667 -2.631754 15.492708 -5.916798 -2.911737 -13.077930 -18.053488 -8.172419 -30.422512 -11.150369 4.177378 20.465076 5.737613 3.568724 -13.303653 -1.248527 2.761850 
24.746161 50.933983 -0.571011 6.555024 -7.536273 90.121910 20.144312 -8.788516 -10.897463 -13.003169 4.119996 -1.461895 -8.265588 7.677911 0.138799 29.093702 -4.753418 0.219622 2.785591 -10.422155 1.651026 -66.531715 -59.200249 36.696262 -64.365387 9.457992 14.395879 8.524705 12.647240 -36.839249 2.149531 12.114442 0.054873 66.798515 23.077904 3.517065 37.389095 -3.770364 3.511055 -8.534408 -12.637552 24.173689 18.056482 -1.465231 -2.844301 15.531526 -5.897320 -2.903261 -11.760479 -18.347021 -7.892675 -30.627893 -10.925761 3.550776 21.879475 5.697928 3.767252 -11.991826 -0.866962 2.902374 
25.333824 50.939762 -0.550957 6.162151 -7.582040 90.255119 20.221230 -8.370085 -10.293964 -12.782739 3.671867 -1.353095 -9.190278 8.045271 -0.232902 29.666302 -4.636621 -0.280059 2.785591 -10.422155 1.651026 -66.623100 -59.569729 37.570541 -63.554596 9.446299 14.014250 8.524705 12.647240 -36.849010 2.149531 12.114442 0.054873 67.211418 23.627586 2.088965 37.288952 -3.731421 3.476066 -8.534408 -12.637552 23.314310 18.201376 -1.044839 -2.813074 15.961045 -5.890404 -2.960733 -10.591747 -18.484354 -7.581061 -30.752455 -10.544329 3.394418 23.110327 5.639391 3.935385 -11.292335 -0.697076 2.974286 
25.908911 50.916306 -0.527165 5.745397 -7.553594 90.291252 19.842049 -7.614882 -10.515478 -12.926653 3.978819 -1.492891 -8.315231 7.416549 0.097346 29.563002 -4.626825 0.147991 2.785591 -10.422155 1.651026 -67.223602 -58.657753 36.658955 -62.893898 9.430331 13.709675 8.524705 12.647240 -37.288460 2.149531 12.114442 0.054873 66.476692 23.256815 2.502189 37.068485 -3.638910 3.392334 -8.534408 -12.637552 23.060406 18.138214 -0.673857 -2.537149 16.921028 -5.869167 -3.102903 -9.332260 -18.523703 -7.215651 -30.651339 -10.116453 3.465312 24.152002 5.599655 4.070222 -10.429704 -0.993515 2.945427 
26.500996 50.880276 -0.509490 5.460032 -7.423843 90.453545 19.772392 -6.999178 -10.810208 -13.071655 4.186951 -1.635806 -8.067792 7.117040 0.246059 29.832699 -4.752358 0.351746 2.785591 -10.422155 1.651026 -67.697075 -57.797230 35.861790 -62.265152 9.407804 13.417682 8.524705 12.647240 -37.679089 2.149531 12.114442 0.054873 65.996262 23.173223 2.220358 36.788044 -3.527415 3.306615 -8.534408 -12.637552 22.288921 17.971867 -0.429839 -2.340877 18.382463 -5.829348 -3.307650 -7.621999 -18.216019 -6.647693 -30.321936 -9.892380 3.247348 25.131948 5.551312 4.206463 -9.219060 -1.118544 2.960213 
27.104633 50.854786 -0.491817 5.205122 -7.323350 90.629303 19.991312 -6.793212 -10.334149 -13.418501 3.734048 -1.562637 -8.343131 7.746089 -0.084264 30.280432 -4.695244 -0.160886 2.785591 -10.422155 1.651026 -67.619766 -57.173397 36.484253 -61.465446 9.368423 13.057172 8.524705 12.647240 -37.737679 2.149531 12.114442 0.054873 66.569305 23.330088 -0.237476 36.418293 -3.381315 3.184720 -8.534408 -12.637552 20.394386 17.660744 -0.214823 -2.071164 20.168739 -5.783394 -3.539923 -5.980837 -17.911402 -6.088705 -29.959856 -9.677411 2.712070 26.088123 5.512022 4.322872 -9.212052 0.072430 3.169356 
27.697058 50.849350 -0.473463 4.718256 -7.335632 90.756226 19.221111 -5.685387 -11.331633 -13.402813 4.432631 -1.926708 -6.381374 6.642293 0.764301 29.298014 -5.089933 1.020943 2.785591 -10.422155 1.651026 -68.360764 -55.740089 34.359425 -60.773193 9.327113 12.745549 8.524705 12.647240 -38.196663 2.149531 12.114442 0.054873 65.180130 23.023479 0.742898 35.949150 -3.192616 3.031904 -8.534408 -12.637552 19.603376 16.997574 0.204998 -1.445527 22.131784 -5.696647 -3.799617 -4.595883 -18.117529 -5.716609 -29.608618 -9.208798 2.000619 27.003452 5.462843 4.452628 -10.257005 0.583994 3.245907 
28.294918 50.872459 -0.454089 4.183119 -7.376827 90.912384 19.248804 -5.132797 -10.511259 -13.320515 3.851074 -1.789188 -7.620433 7.014609 0.285016 30.467226 -4.713306 0.378177 2.785591 -10.422155 1.651026 -68.400612 -55.582844 35.045467 -59.675644 9.242234 12.259192 8.524705 12.647240 -38.548229 2.149531 12.114442 0.054873 65.645729 23.663713 -1.633950 35.639969 -3.062161 2.926841 -8.534408 -12.637552 17.972513 16.103416 0.703456 -0.812866 24.313555 -5.642736 -4.082968 -2.039557 -18.039467 -4.921417 -29.170683 -8.698709 1.353291 27.843920 5.433579 4.569689 -10.900155 0.654362 3.247865 
